<svg xmlns="http://www.w3.org/2000/svg" viewBox="0 0 512 512">
  <rect width="512" height="512" rx="100" fill="#d97706"/>
  <circle cx="256" cy="295" r="160" fill="#fef3c7"/>
  <ellipse cx="128" cy="235" rx="58" ry="85" fill="#92400e" transform="rotate(-12 128 235)"/>
  <ellipse cx="384" cy="235" rx="58" ry="85" fill="#92400e" transform="rotate(12 384 235)"/>
  <ellipse cx="205" cy="272" rx="23" ry="26" fill="#111"/>
  <ellipse cx="307" cy="272" rx="23" ry="26" fill="#111"/>
  <circle cx="214" cy="263" r="8" fill="white"/>
  <circle cx="316" cy="263" r="8" fill="white"/>
  <ellipse cx="256" cy="338" rx="52" ry="40" fill="#fde68a"/>
  <ellipse cx="256" cy="316" rx="22" ry="15" fill="#1f2937"/>
  <circle cx="249" cy="313" r="5" fill="#374151"/>
  <circle cx="263" cy="313" r="5" fill="#374151"/>
  <path d="M244,331 Q228,346 212,340" stroke="#92400e" stroke-width="3" fill="none" stroke-linecap="round"/>
  <path d="M268,331 Q284,346 300,340" stroke="#92400e" stroke-width="3" fill="none" stroke-linecap="round"/>
</svg>
